<svg width="321" height="325" viewBox="0 0 321 325" fill="none" xmlns="http://www.w3.org/2000/svg">
<rect x="5" y="5" width="311" height="315" rx="45" fill="#070559" stroke="#EF1B31" stroke-width="10"/>
<path fill-rule="evenodd" clip-rule="evenodd" d="M189.938 80.125L215.875 106.062L203.981 117.957L178.043 92.0194L189.938 80.125ZM170.707 99.3556L126.168 143.894L152.106 169.832L196.644 125.293L170.707 99.3556ZM118.832 151.231L144.769 177.168L138.062 183.875H112.125V157.938L118.832 151.231Z" fill="white"/>
<path d="M111.168 259L104.509 235.727H109.884L113.736 251.898H113.929L118.179 235.727H122.781L127.02 251.932H127.224L131.077 235.727H136.452L129.793 259H124.997L120.565 243.784H120.384L115.963 259H111.168ZM137.901 259V241.545H142.594V244.591H142.776C143.094 243.508 143.628 242.689 144.378 242.136C145.128 241.576 145.991 241.295 146.969 241.295C147.211 241.295 147.473 241.311 147.753 241.341C148.033 241.371 148.279 241.413 148.491 241.466V245.761C148.264 245.693 147.95 245.633 147.548 245.58C147.147 245.527 146.779 245.5 146.446 245.5C145.734 245.5 145.098 245.655 144.537 245.966C143.984 246.269 143.545 246.693 143.219 247.239C142.901 247.784 142.741 248.413 142.741 249.125V259H137.901ZM150.994 259V241.545H155.835V259H150.994ZM153.426 239.295C152.706 239.295 152.089 239.057 151.574 238.58C151.066 238.095 150.812 237.515 150.812 236.841C150.812 236.174 151.066 235.602 151.574 235.125C152.089 234.64 152.706 234.398 153.426 234.398C154.146 234.398 154.759 234.64 155.267 235.125C155.782 235.602 156.04 236.174 156.04 236.841C156.04 237.515 155.782 238.095 155.267 238.58C154.759 239.057 154.146 239.295 153.426 239.295ZM168.997 241.545V245.182H158.486V241.545H168.997ZM160.872 237.364H165.713V253.636C165.713 254.083 165.781 254.432 165.918 254.682C166.054 254.924 166.243 255.095 166.486 255.193C166.736 255.292 167.024 255.341 167.349 255.341C167.577 255.341 167.804 255.322 168.031 255.284C168.259 255.239 168.433 255.205 168.554 255.182L169.315 258.784C169.073 258.86 168.732 258.947 168.293 259.045C167.853 259.152 167.319 259.216 166.69 259.239C165.524 259.284 164.501 259.129 163.622 258.773C162.751 258.417 162.073 257.864 161.588 257.114C161.103 256.364 160.865 255.417 160.872 254.273V237.364ZM172.151 259V241.545H176.991V259H172.151ZM174.582 239.295C173.863 239.295 173.245 239.057 172.73 238.58C172.223 238.095 171.969 237.515 171.969 236.841C171.969 236.174 172.223 235.602 172.73 235.125C173.245 234.64 173.863 234.398 174.582 234.398C175.302 234.398 175.916 234.64 176.423 235.125C176.938 235.602 177.196 236.174 177.196 236.841C177.196 237.515 176.938 238.095 176.423 238.58C175.916 239.057 175.302 239.295 174.582 239.295ZM185.71 248.909V259H180.869V241.545H185.483V244.625H185.688C186.074 243.61 186.722 242.807 187.631 242.216C188.54 241.617 189.642 241.318 190.938 241.318C192.15 241.318 193.206 241.583 194.108 242.114C195.009 242.644 195.71 243.402 196.21 244.386C196.71 245.364 196.96 246.53 196.96 247.886V259H192.119V248.75C192.127 247.682 191.854 246.848 191.301 246.25C190.748 245.644 189.987 245.341 189.017 245.341C188.366 245.341 187.79 245.481 187.29 245.761C186.797 246.042 186.411 246.451 186.131 246.989C185.858 247.519 185.718 248.159 185.71 248.909ZM208.639 265.909C207.071 265.909 205.726 265.693 204.605 265.261C203.491 264.837 202.605 264.258 201.946 263.523C201.287 262.788 200.859 261.962 200.662 261.045L205.139 260.443C205.276 260.792 205.491 261.117 205.787 261.42C206.082 261.723 206.473 261.966 206.957 262.148C207.45 262.337 208.048 262.432 208.753 262.432C209.806 262.432 210.673 262.174 211.355 261.659C212.045 261.152 212.389 260.299 212.389 259.102V255.909H212.185C211.973 256.394 211.654 256.852 211.23 257.284C210.806 257.716 210.26 258.068 209.594 258.341C208.927 258.614 208.132 258.75 207.207 258.75C205.897 258.75 204.704 258.447 203.628 257.841C202.56 257.227 201.707 256.292 201.071 255.034C200.442 253.769 200.128 252.17 200.128 250.239C200.128 248.261 200.45 246.61 201.094 245.284C201.738 243.958 202.594 242.966 203.662 242.307C204.738 241.648 205.916 241.318 207.196 241.318C208.173 241.318 208.991 241.485 209.651 241.818C210.31 242.144 210.84 242.553 211.241 243.045C211.651 243.53 211.965 244.008 212.185 244.477H212.366V241.545H217.173V259.17C217.173 260.655 216.81 261.898 216.082 262.898C215.355 263.898 214.348 264.648 213.06 265.148C211.779 265.655 210.306 265.909 208.639 265.909ZM208.741 255.114C209.522 255.114 210.181 254.92 210.719 254.534C211.264 254.14 211.681 253.58 211.969 252.852C212.264 252.117 212.412 251.239 212.412 250.216C212.412 249.193 212.268 248.307 211.98 247.557C211.692 246.799 211.276 246.212 210.73 245.795C210.185 245.379 209.522 245.17 208.741 245.17C207.946 245.17 207.276 245.386 206.73 245.818C206.185 246.242 205.772 246.833 205.491 247.591C205.211 248.348 205.071 249.223 205.071 250.216C205.071 251.223 205.211 252.095 205.491 252.83C205.779 253.557 206.192 254.121 206.73 254.523C207.276 254.917 207.946 255.114 208.741 255.114Z" fill="white"/>
</svg>
