<svg width="321" height="325" viewBox="0 0 321 325" fill="none" xmlns="http://www.w3.org/2000/svg">
<rect x="5" y="5" width="311" height="314.875" rx="45" fill="#070559" stroke="#EF1B31" stroke-width="10"/>
<path fill-rule="evenodd" clip-rule="evenodd" d="M113.48 132.125C111.923 141.402 111.094 151.28 111.094 161.5C111.094 171.72 111.923 181.598 113.48 190.875H81.7188V196.775C76.9954 185.974 74.375 174.043 74.375 161.5C74.375 148.957 76.9954 137.026 81.7188 126.225V132.125H113.48ZM128.416 132.125C126.728 141.199 125.781 151.098 125.781 161.5C125.781 171.902 126.728 181.801 128.416 190.875H196.584C198.272 181.801 199.219 171.902 199.219 161.5C199.219 151.098 198.272 141.199 196.584 132.125H128.416ZM193.001 117.438H131.999C138.832 95.221 150.448 80.7188 162.5 80.7188C174.552 80.7188 186.168 95.221 193.001 117.438ZM211.52 132.125C213.077 141.402 213.906 151.28 213.906 161.5C213.906 171.72 213.077 181.598 211.52 190.875H243.281V196.775C248.005 185.974 250.625 174.043 250.625 161.5C250.625 148.957 248.005 137.026 243.281 126.225V132.125H211.52ZM238.835 117.438H208.317C203.595 100.093 196.1 85.8059 186.681 76.7338C208.886 83.0561 227.515 97.8683 238.835 117.438ZM116.683 117.438H86.1646C97.4847 97.8683 116.114 83.0561 138.319 76.7338C128.9 85.8059 121.405 100.093 116.683 117.438ZM86.1646 205.563H116.683C121.405 222.907 128.9 237.194 138.319 246.266C116.114 239.944 97.4847 225.132 86.1646 205.563ZM162.5 242.281C174.552 242.281 186.168 227.779 193.001 205.563H131.999C138.832 227.779 150.448 242.281 162.5 242.281ZM186.681 246.266C196.1 237.194 203.595 222.907 208.317 205.563H238.835C227.515 225.132 208.886 239.944 186.681 246.266Z" fill="white"/>
</svg>
